:SAMPLES-PER-SECOND 30
:FULLY-SPECIFIED
:DEGREES
328
root  -2.8772 40.904 0.551524 176.601 -88.4873 -178.373
RightUpLeg  5.85037 -1.79062 -1.35341
RightLeg  -1.2003 -17.9041 0.541045
RightFoot  -1.64268 -0.304282 3.41233
RightToes  -3.13006e-008 1.75238e-005 3.56266e-009
Spine  -8.83785 -0.21652 -3.50308
Spine1  16.9429 -0.132865 0.837299
HEad  -14.1059 9.68727 21.9639
LeftShoulder1  3.13803 -5.94693 -27.1173
LeftArm  -34.2007 3.64758 -46.6415
LeftForeArm  140.359 -65.7858 -154.933
LeftHand  0.756985 -7.1898 -6.60559
RightShoulder  3.95431 7.56034 29.8159
RightArm  -25.0707 -11.2801 29.6651
RightForeArm  103.119 65.4246 151.832
RightHand  -0.361278 6.21523 -3.94336
LeftUpLeg  5.18312 1.75163 2.57414
LeftLeg  -0.972212 13.1203 -0.611109
LeftFoot  -1.437 0.274453 -3.13477
LeftToes  4.76866e-008 1.46233e-008 1.30548e-009
329
root  -2.85808 40.9046 0.571428 176.016 -88.3586 -177.746
RightUpLeg  5.75872 -1.72774 -1.33739
RightLeg  -1.20581 -17.8405 0.491415
RightFoot  -1.56238 -0.310822 3.49548
RightToes  -3.13006e-008 1.75238e-005 3.56266e-009
Spine  -8.92439 -0.234569 -3.39174
Spine1  17.1821 -0.220165 0.993972
HEad  -14.3836 9.37575 21.4472
LeftShoulder1  3.20864 -6.11987 -27.2602
LeftArm  -34.4353 4.00347 -46.0713
LeftForeArm  140.279 -65.888 -154.811
LeftHand  0.741839 -6.70027 -6.7604
RightShoulder  3.93258 7.52667 29.7264
RightArm  -24.2764 -10.9294 29.953
RightForeArm  104.134 65.6882 151.57
RightHand  -0.390885 6.37863 -4.18872
LeftUpLeg  5.11607 1.79024 2.58935
LeftLeg  -0.948863 13.1969 -0.659723
LeftFoot  -1.45312 0.273924 -3.12045
LeftToes  4.76866e-008 1.46233e-008 1.30548e-009
330
root  -2.84378 40.9049 0.598873 179.549 -88.1243 178.776
RightUpLeg  5.547 -1.78818 -1.48823
RightLeg  -1.00645 -17.5534 0.39614
RightFoot  -1.60472 -0.311762 3.49116
RightToes  -3.13006e-008 1.75238e-005 3.56266e-009
Spine  -9.0886 -0.196407 -3.07975
Spine1  17.3672 -0.127835 0.759635
HEad  -14.5059 9.10141 20.3546
LeftShoulder1  3.17743 -6.09331 -27.0194
LeftArm  -34.3208 4.10791 -45.9352
LeftForeArm  139.632 -66.0588 -154.548
LeftHand  0.749832 -6.1176 -7.20483
RightShoulder  3.92558 7.5289 29.6541
RightArm  -23.5959 -10.2553 30.3466
RightForeArm  103.568 66.152 150.917
RightHand  -0.460177 6.65236 -4.76773
LeftUpLeg  5.12085 1.7358 2.44094
LeftLeg  -1.08562 13.504 -0.752862
LeftFoot  -1.38067 0.264203 -2.96338
LeftToes  4.76866e-008 1.46233e-008 1.30548e-009
331
root  -2.8423 40.905 0.624381 -179.832 -88.1019 178.09
RightUpLeg  5.63675 -1.80971 -1.54967
RightLeg  -1.05239 -17.5089 0.379598
RightFoot  -1.57095 -0.314574 3.51588
RightToes  -3.13006e-008 1.75238e-005 3.56266e-009
Spine  -9.10517 -0.195162 -2.66225
Spine1  17.4317 -0.0641711 0.431926
HEad  -14.6838 7.91163 18.7909
LeftShoulder1  3.2156 -6.20545 -27.031
LeftArm  -33.6551 4.00955 -45.7691
LeftForeArm  139.52 -66.3559 -154.197
LeftHand  0.776701 -6.87511 -6.98553
RightShoulder  3.89292 7.50371 29.4341
RightArm  -22.7068 -9.50411 30.9115
RightForeArm  103.442 66.6998 150.155
RightHand  -0.57639 6.88217 -5.79608
LeftUpLeg  5.23993 1.70591 2.37145
LeftLeg  -1.18455 13.5577 -0.777723
LeftFoot  -1.34503 0.266646 -2.99579
LeftToes  4.76866e-008 1.46233e-008 1.30548e-009
332
root  -2.84463 40.9048 0.652952 179.672 -88.192 178.436
RightUpLeg  5.85318 -1.86242 -1.59237
RightLeg  -1.1317 -17.5383 0.407328
RightFoot  -1.55795 -0.316758 3.53145
RightToes  -3.13006e-008 1.75238e-005 3.56266e-009
Spine  -8.83662 -0.268621 -2.11658
Spine1  17.0473 -0.0196463 -0.144896
HEad  -14.4927 6.65482 17.2602
LeftShoulder1  3.22332 -6.30811 -26.7544
LeftArm  -32.2567 3.9627 -46.0005
LeftForeArm  139.593 -66.5358 -154.003
LeftHand  0.596324 -6.83807 -5.29758
RightShoulder  3.90884 7.57436 29.3507
RightArm  -21.2957 -8.554 31.3267
RightForeArm  105.921 67.7385 148.842
RightHand  -0.639272 7.2429 -6.20526
LeftUpLeg  5.36225 1.70957 2.33959
LeftLeg  -1.11507 13.4834 -0.750997
LeftFoot  -1.39667 0.260025 -2.88724
LeftToes  4.76866e-008 1.46233e-008 1.30548e-009
333
root  -2.83881 40.9046 0.680636 178.973 -88.076 179.087
RightUpLeg  5.85058 -1.87953 -1.62587
RightLeg  -1.05377 -17.4295 0.385443
RightFoot  -1.55273 -0.315146 3.48931
RightToes  -3.13006e-008 1.75238e-005 3.56266e-009
Spine  -9.2681 -0.321061 -1.55774
Spine1  17.4171 0.0550204 -0.719786
HEad  -14.3681 5.99256 15.7698
LeftShoulder1  3.25674 -6.4868 -26.4917
LeftArm  -30.2954 2.82936 -46.4482
LeftForeArm  139.673 -67.3576 -152.995
LeftHand  0.300738 -6.26566 -2.64486
RightShoulder  3.96258 7.84184 28.9811
RightArm  -19.2489 -5.52248 31.975
RightForeArm  108.027 69.713 145.738
RightHand  -0.864565 7.28266 -8.25813
LeftUpLeg  5.38091 1.70197 2.30349
LeftLeg  -1.03403 13.6021 -0.723435
LeftFoot  -1.43956 0.255065 -2.80453
LeftToes  4.76866e-008 1.46233e-008 1.30548e-009
334
root  -2.82573 40.9043 0.702415 178.446 -88.0586 179.526
RightUpLeg  5.87125 -1.90574 -1.65618
RightLeg  -0.94808 -17.3881 0.357747
RightFoot  -1.55093 -0.321404 3.57111
RightToes  -3.13006e-008 1.75238e-005 3.56266e-009
Spine  -9.93454 -0.452293 -1.30013
Spine1  18.1842 -0.0403172 -0.905328
HEad  -14.4888 5.13888 14.3424
LeftShoulder1  3.27687 -6.62591 -26.2304
LeftArm  -27.0459 -1.3852 -46.8284
LeftForeArm  140.688 -70.1647 -149.159
LeftHand  -0.202963 -4.88628 2.62512
RightShoulder  3.99464 8.07314 28.5454
RightArm  -16.666 -0.596638 32.7417
RightForeArm  109.015 72.4321 140.131
RightHand  -0.98247 7.29303 -9.30652
LeftUpLeg  5.4246 1.70441 2.29432
LeftLeg  -0.961014 13.6038 -0.711404
LeftFoot  -1.47937 0.256593 -2.82266
LeftToes  4.76866e-008 1.46233e-008 1.30548e-009
